<svg width="33" height="32" viewBox="0 0 33 32" fill="none" xmlns="http://www.w3.org/2000/svg">
<rect x="0.00268555" y="0.000244141" width="32" height="32" rx="16" fill="#1C1C1C"/>
<path d="M16.0021 9.33301C12.3201 9.33301 9.33545 12.3177 9.33545 15.9997C9.33545 19.327 11.7734 22.085 14.9608 22.5857V17.9263H13.2674V15.9997H14.9608V14.531C14.9608 12.8603 15.9554 11.9377 17.4788 11.9377C18.2081 11.9377 18.9708 12.0677 18.9708 12.0677V13.7077H18.1308C17.3021 13.7077 17.0441 14.2217 17.0441 14.749V15.9997H18.8928L18.5974 17.9263H17.0441V22.5857C20.2308 22.0857 22.6688 19.3263 22.6688 15.9997C22.6688 12.3177 19.6841 9.33301 16.0021 9.33301Z" fill="white"/>
</svg>
