<svg width="33" height="32" viewBox="0 0 33 32" fill="none" xmlns="http://www.w3.org/2000/svg">
<rect x="0.00268555" y="0.000244141" width="32" height="32" rx="16" fill="#1C1C1C"/>
<path d="M16.0021 9.33301C17.8134 9.33301 18.0394 9.33967 18.7501 9.37301C19.4601 9.40634 19.9434 9.51767 20.3688 9.68301C20.8088 9.85234 21.1794 10.0817 21.5501 10.4517C21.8891 10.7849 22.1514 11.1881 22.3188 11.633C22.4834 12.0577 22.5954 12.5417 22.6288 13.2517C22.6601 13.9623 22.6688 14.1883 22.6688 15.9997C22.6688 17.811 22.6621 18.037 22.6288 18.7477C22.5954 19.4577 22.4834 19.941 22.3188 20.3663C22.1519 20.8115 21.8895 21.2148 21.5501 21.5477C21.2168 21.8866 20.8137 22.1488 20.3688 22.3163C19.9441 22.481 19.4601 22.593 18.7501 22.6263C18.0394 22.6577 17.8134 22.6663 16.0021 22.6663C14.1908 22.6663 13.9648 22.6597 13.2541 22.6263C12.5441 22.593 12.0608 22.481 11.6354 22.3163C11.1903 22.1493 10.7871 21.887 10.4541 21.5477C10.1151 21.2145 9.85274 20.8113 9.68545 20.3663C9.52012 19.9417 9.40878 19.4577 9.37545 18.7477C9.34412 18.037 9.33545 17.811 9.33545 15.9997C9.33545 14.1883 9.34212 13.9623 9.37545 13.2517C9.40878 12.541 9.52012 12.0583 9.68545 11.633C9.85227 11.1878 10.1147 10.7846 10.4541 10.4517C10.7872 10.1125 11.1904 9.85016 11.6354 9.68301C12.0608 9.51767 12.5434 9.40634 13.2541 9.37301C13.9648 9.34167 14.1908 9.33301 16.0021 9.33301ZM16.0021 12.6663C15.1181 12.6663 14.2702 13.0175 13.6451 13.6427C13.02 14.2678 12.6688 15.1156 12.6688 15.9997C12.6688 16.8837 13.02 17.7316 13.6451 18.3567C14.2702 18.9818 15.1181 19.333 16.0021 19.333C16.8862 19.333 17.734 18.9818 18.3591 18.3567C18.9843 17.7316 19.3354 16.8837 19.3354 15.9997C19.3354 15.1156 18.9843 14.2678 18.3591 13.6427C17.734 13.0175 16.8862 12.6663 16.0021 12.6663ZM20.3354 12.4997C20.3354 12.2787 20.2477 12.0667 20.0914 11.9104C19.9351 11.7541 19.7231 11.6663 19.5021 11.6663C19.2811 11.6663 19.0691 11.7541 18.9129 11.9104C18.7566 12.0667 18.6688 12.2787 18.6688 12.4997C18.6688 12.7207 18.7566 12.9327 18.9129 13.0889C19.0691 13.2452 19.2811 13.333 19.5021 13.333C19.7231 13.333 19.9351 13.2452 20.0914 13.0889C20.2477 12.9327 20.3354 12.7207 20.3354 12.4997ZM16.0021 13.9997C16.5325 13.9997 17.0413 14.2104 17.4163 14.5855C17.7914 14.9605 18.0021 15.4692 18.0021 15.9997C18.0021 16.5301 17.7914 17.0388 17.4163 17.4139C17.0413 17.789 16.5325 17.9997 16.0021 17.9997C15.4717 17.9997 14.963 17.789 14.5879 17.4139C14.2128 17.0388 14.0021 16.5301 14.0021 15.9997C14.0021 15.4692 14.2128 14.9605 14.5879 14.5855C14.963 14.2104 15.4717 13.9997 16.0021 13.9997Z" fill="white"/>
</svg>
