<svg width="33" height="32" viewBox="0 0 33 32" fill="none" xmlns="http://www.w3.org/2000/svg">
<rect x="0.00268555" y="0.000244141" width="32" height="32" rx="16" fill="#1C1C1C"/>
<path d="M22.7774 11.7696C22.2684 11.9948 21.7287 12.1426 21.1761 12.2083C21.7586 11.8599 22.1945 11.3117 22.4027 10.6656C21.8561 10.991 21.2567 11.219 20.6321 11.3423C20.2125 10.8934 19.6563 10.5956 19.05 10.4954C18.4438 10.3951 17.8213 10.498 17.2796 10.7879C16.7378 11.0779 16.307 11.5388 16.0541 12.0988C15.8013 12.6589 15.7406 13.2868 15.8814 13.885C14.7728 13.8294 13.6883 13.5413 12.6982 13.0394C11.7082 12.5375 10.8348 11.833 10.1347 10.9716C9.88691 11.3973 9.75669 11.8811 9.75739 12.3736C9.75739 13.3403 10.2494 14.1943 10.9974 14.6943C10.5547 14.6804 10.1218 14.5608 9.73472 14.3456V14.3803C9.73485 15.0241 9.95763 15.6481 10.3653 16.1463C10.7729 16.6446 11.3404 16.9866 11.9714 17.1143C11.5605 17.2257 11.1296 17.2421 10.7114 17.1623C10.8893 17.7165 11.2361 18.2011 11.7031 18.5484C12.1702 18.8957 12.7341 19.0882 13.3161 19.099C12.7377 19.5532 12.0755 19.889 11.3673 20.0871C10.6591 20.2852 9.91881 20.3418 9.18872 20.2536C10.4632 21.0733 11.9468 21.5084 13.4621 21.507C18.5907 21.507 21.3954 17.2583 21.3954 13.5736C21.3954 13.4536 21.3921 13.3323 21.3867 13.2136C21.9326 12.8191 22.4038 12.3303 22.7781 11.7703L22.7774 11.7696Z" fill="white"/>
</svg>
